<svg xmlns="http://www.w3.org/2000/svg" width="160" height="160" fill="none"><path fill="#363636" d="M97.3 37.5c0-.7-.5-1.5-1.3-1.5H53c-.7 0-1.3.8-1.3 1.5V41h45.6v-3.5Zm.9 80.3h-9.6v-10.4h-7v2.5H62.9a3.5 3.5 0 0 0-3.2-2.1h-12a3.6 3.6 0 0 0-3.6 3.5v3a3.5 3.5 0 0 0 3.6 3.5h12c1.5 0 2.8-.9 3.3-2.3h18.8v2.3H72c-.5 0-1 .5-1 1v3.2c0 .5.5 1 1 1h26.1c.5 0 1-.5 1-1v-3.2c0-.5-.5-1-1-1Zm6.5-69.4a7 7 0 0 0-6.8-5H51a7.1 7.1 0 0 0-7.1 7v46.9a7.2 7.2 0 0 0 7.2 7h46.7c3.9 0 7.1-3.1 7.1-7V86.9a23.3 23.3 0 0 0-.3-38.5ZM56.2 98.2a6 6 0 1 1 0-11.9 6 6 0 0 1 0 11.9Zm6-32.6c0 .7-.6 1.4-1.4 1.4h-9c-.7 0-1.4-.7-1.4-1.4V51.4c0-.8.7-1.4 1.4-1.4h9c.8 0 1.4.6 1.4 1.4v14.2Zm29.6 22.3a20.1 20.1 0 0 1-20.1-20.2 20.1 20.1 0 0 1 20-20.1 20.1 20.1 0 0 1 20.1 20.1 20.1 20.1 0 0 1-20 20.2Z"/><path fill="#363636" d="M91.8 80A12.2 12.2 0 0 0 104 67.7a12.2 12.2 0 0 0-12.2-12.2 12.2 12.2 0 0 0-12.2 12.2A12.2 12.2 0 0 0 91.8 80ZM75.6 69.2a1.4 1.4 0 1 0 0-2.9 1.4 1.4 0 0 0 0 2.9Zm32.4 0a1.4 1.4 0 1 0 0-2.9 1.4 1.4 0 0 0 0 2.9ZM83 55.4a1.4 1.4 0 1 0 0-2.8 1.4 1.4 0 0 0 0 2.8ZM100.4 83a1.4 1.4 0 1 0 0-2.9 1.4 1.4 0 0 0 0 3ZM99.7 55a1.4 1.4 0 1 0 0-2.9 1.4 1.4 0 0 0 0 2.9ZM83.8 83.3a1.4 1.4 0 1 0 0-2.8 1.4 1.4 0 0 0 0 2.8Z"/></svg>