<svg xmlns="http://www.w3.org/2000/svg" width="160" height="160" fill="none"><path fill="#363636" d="M106.5 63.2H105v-4.6a9.2 9.2 0 0 0-9.1-9.2H61.1c-5 0-9.1 4.1-9.1 9.2v42.8a9.2 9.2 0 0 0 9 9.2H96c5 0 9-4.1 9-9.2V98h1.6c.4 0 .8-.3.8-.7V83.5a.8.8 0 0 0-.8-.8H105v-8.8h1.5c.8 0 1.5-.7 1.5-1.5v-7.7c0-.8-.7-1.5-1.5-1.5Zm-20.4-3.1c3 0 5.3 2.4 5.3 5.4a5.3 5.3 0 0 1-5.3 5.3c-3 0-5.3-2.4-5.3-5.3A5.3 5.3 0 0 1 86 60Zm-15.2 0c3 0 5.3 2.4 5.3 5.4a5.3 5.3 0 0 1-5.3 5.3c-2.9 0-5.3-2.4-5.3-5.3A5.3 5.3 0 0 1 71 60ZM57.3 80.4a5.3 5.3 0 0 1 5.3-5.4c3 0 5.3 2.4 5.3 5.4a5.3 5.3 0 0 1-5.3 5.3c-3 0-5.3-2.4-5.3-5.3Zm13.6 19.5c-2.9 0-5.3-2.4-5.3-5.4a5.3 5.3 0 0 1 5.3-5.3c3 0 5.3 2.4 5.3 5.3A5.3 5.3 0 0 1 71 100Zm1.5-20a6 6 0 0 1 6-6 6 6 0 0 1 6.1 6 6 6 0 0 1-6 6.2 6.1 6.1 0 0 1-6-6.1Zm13.7 20c-3 0-5.3-2.4-5.3-5.4a5.3 5.3 0 0 1 5.3-5.3c3 0 5.3 2.4 5.3 5.3A5.3 5.3 0 0 1 86 100Zm8.3-14.1c-3 0-5.3-2.4-5.3-5.4a5.3 5.3 0 0 1 5.3-5.4c3 0 5.3 2.4 5.3 5.4a5.3 5.3 0 0 1-5.3 5.4ZM61.6 46.3h33.7c.9 0 1.5-.7 1.3-1.5L95 34a3.7 3.7 0 0 0-3.5-3h-26a3.7 3.7 0 0 0-3.5 3l-1.7 10.8c0 .8.5 1.5 1.3 1.5Zm33.7 67.4H61.7c-.9 0-1.5.6-1.4 1.5l1.7 10.7a3.7 3.7 0 0 0 3.5 3h26a3.7 3.7 0 0 0 3.5-3l1.6-10.7a1.3 1.3 0 0 0-1.3-1.5Z"/></svg>